<svg width="195" height="49" viewBox="0 0 195 49" fill="none" xmlns="http://www.w3.org/2000/svg">
<g clip-path="url(#clip0_1_99)">
<path d="M71.4871 27.5287V18.8062H70.1502V28.9825H76.3696V27.645H71.6033C71.5452 27.7032 71.4871 27.5869 71.4871 27.5287ZM85.5533 18.6899C84.1583 18.6899 82.8214 19.2714 81.8333 20.26C80.8452 21.2485 80.3221 22.586 80.3221 23.9234C80.3221 25.319 80.8452 26.5983 81.8333 27.5869C82.7633 28.5754 84.1583 29.1569 85.5533 29.1569C86.9483 29.1569 88.2852 28.6336 89.2733 27.5869C90.2614 26.5983 90.7846 25.2609 90.7846 23.9234C90.7846 22.5278 90.2614 21.2485 89.2733 20.26C88.2852 19.2133 86.9483 18.6899 85.5533 18.6899ZM88.2852 26.6565C87.5296 27.4124 86.5414 27.8195 85.5533 27.8195C84.5652 27.8195 83.5771 27.4124 82.8214 26.6565C82.0658 25.9005 81.6589 24.9701 81.6589 23.9234C81.6589 22.8767 82.0658 21.9463 82.8214 21.1904C83.5189 20.4344 84.5071 20.0274 85.5533 20.0274C86.5414 20.0274 87.5877 20.4344 88.2852 21.1904C88.9827 21.9463 89.3896 22.8767 89.3896 23.9234C89.4477 24.9701 89.0408 25.9005 88.2852 26.6565ZM59.1646 27.5287V24.7375C59.1646 24.6794 59.2227 24.6212 59.2808 24.6212H63.8727V23.2838H59.2808C59.2227 23.2838 59.1646 23.2256 59.1646 23.1675V20.3763C59.1646 20.3181 59.2227 20.26 59.2808 20.26H63.9889V18.9225H57.8277V29.0988H64.0471V27.7613H59.2808C59.2227 27.7032 59.1646 27.5869 59.1646 27.5287ZM47.1908 26.3657C47.1908 26.4239 47.1327 26.4239 47.0746 26.4239C47.0164 26.4239 46.9583 26.4239 46.9583 26.3657L43.9358 18.8062H42.4246L46.5514 28.9825H47.5396L51.6664 18.8062V18.7481H50.2133L47.1908 26.3657ZM136.529 20.1437H139.551C139.61 20.1437 139.668 20.2018 139.668 20.26V28.9825H141.005V20.26C141.005 20.2018 141.063 20.1437 141.121 20.1437H144.143V18.8062H136.471V20.1437H136.529ZM97.9921 21.5974V20.26C97.9921 20.2018 97.9921 20.2018 98.0502 20.2018H100.375C100.84 20.2018 101.247 20.3181 101.596 20.6089C102.061 20.9578 102.293 21.4811 102.293 22.0626C102.293 22.4115 102.177 22.8186 101.945 23.1093C101.712 23.4001 101.712 23.8071 102.003 24.0979C102.119 24.2142 102.293 24.2723 102.468 24.2723C102.642 24.2723 102.816 24.2142 102.933 24.0979L102.991 24.0397C103.456 23.5164 103.688 22.7604 103.688 22.0626C103.688 21.3067 103.456 20.5507 102.933 19.9692C102.526 19.4459 101.712 18.8062 100.317 18.8062H96.5971V29.0406H97.9921V24.0397C97.9921 24.0397 97.9921 23.9816 98.0502 23.9816H98.1083L102.351 28.9825L102.41 29.0406H104.211L101.015 25.2609L97.9921 21.5974ZM150.305 29.0406H151.7V18.8062H150.305V29.0406ZM122.695 20.1437H125.718C125.776 20.1437 125.834 20.2018 125.834 20.26V28.9825H127.171V20.26C127.171 20.2018 127.229 20.1437 127.287 20.1437H130.31V18.8062H122.637V20.1437H122.695ZM111.71 27.645C111.71 27.645 111.651 27.5869 111.651 27.5287V24.7375C111.651 24.6794 111.71 24.6212 111.768 24.6212H116.36V23.2838H111.768C111.71 23.2838 111.651 23.2256 111.651 23.1675V20.3763C111.651 20.3181 111.71 20.26 111.768 20.26H116.418V18.9225H110.256V29.0988H116.476V27.7613H111.768C111.768 27.7032 111.768 27.645 111.71 27.645Z" fill="#141615"/>
</g>
<defs>
<clipPath id="clip0_1_99">
<rect width="110" height="11.63" fill="white" transform="translate(42.3528 18.6899)"/>
</clipPath>
</defs>
</svg>
